<?xml version="1.0" encoding="UTF-8" standalone="no"?>
<!DOCTYPE svg PUBLIC "-//W3C//DTD SVG 1.1//EN"
 "http://www.w3.org/Graphics/SVG/1.1/DTD/svg11.dtd">
<!-- Generated by graphviz version 2.36.0 (20140111.2315)
 -->
<!-- Title: controllers_diagram Pages: 1 -->
<svg width="499pt" height="523pt"
 viewBox="0.00 0.00 499.00 523.00" xmlns="http://www.w3.org/2000/svg" xmlns:xlink="http://www.w3.org/1999/xlink">
<g id="graph0" class="graph" transform="scale(1 1) rotate(0) translate(4 519)">
<title>controllers_diagram</title>
<polygon fill="none" stroke="none" points="-4,4 -4,-519 495,-519 495,4 -4,4"/>
<!-- _diagram_info -->
<g id="node1" class="node"><title>_diagram_info</title>
<text text-anchor="start" x="53" y="-258.6" font-family="Times,serif" font-size="13.00">Controllers diagram</text>
<text text-anchor="start" x="53" y="-244.6" font-family="Times,serif" font-size="13.00">Date: Apr 23 2016 &#45; 11:57</text>
<text text-anchor="start" x="53" y="-230.6" font-family="Times,serif" font-size="13.00">Migration version: 20160423080603</text>
<text text-anchor="start" x="53" y="-216.6" font-family="Times,serif" font-size="13.00">Generated by RailRoady 1.4.2</text>
<text text-anchor="start" x="53" y="-202.6" font-family="Times,serif" font-size="13.00">http://railroady.prestonlee.com</text>
</g>
<!-- Admin::ApplicationController -->
<g id="node2" class="node"><title>Admin::ApplicationController</title>
<path fill="none" stroke="black" d="M237,-300.5C237,-300.5 395,-300.5 395,-300.5 401,-300.5 407,-306.5 407,-312.5 407,-312.5 407,-381.5 407,-381.5 407,-387.5 401,-393.5 395,-393.5 395,-393.5 237,-393.5 237,-393.5 231,-393.5 225,-387.5 225,-381.5 225,-381.5 225,-312.5 225,-312.5 225,-306.5 231,-300.5 237,-300.5"/>
<text text-anchor="middle" x="316" y="-378.3" font-family="Times,serif" font-size="14.00">Admin::ApplicationController</text>
<polyline fill="none" stroke="black" points="225,-370.5 407,-370.5 "/>
<text text-anchor="start" x="233" y="-355.3" font-family="Times,serif" font-size="14.00">authenticate_admin</text>
<polyline fill="none" stroke="black" points="225,-347.5 407,-347.5 "/>
<polyline fill="none" stroke="black" points="225,-323.5 407,-323.5 "/>
<text text-anchor="start" x="233" y="-308.3" font-family="Times,serif" font-size="14.00">_layout</text>
</g>
<!-- Admin::AnswersController -->
<g id="node3" class="node"><title>Admin::AnswersController</title>
<path fill="none" stroke="black" d="M297,-120.5C297,-120.5 438,-120.5 438,-120.5 444,-120.5 450,-126.5 450,-132.5 450,-132.5 450,-202.5 450,-202.5 450,-208.5 444,-214.5 438,-214.5 438,-214.5 297,-214.5 297,-214.5 291,-214.5 285,-208.5 285,-202.5 285,-202.5 285,-132.5 285,-132.5 285,-126.5 291,-120.5 297,-120.5"/>
<text text-anchor="middle" x="367.5" y="-199.3" font-family="Times,serif" font-size="14.00">Admin::AnswersController</text>
<polyline fill="none" stroke="black" points="285,-191.5 450,-191.5 "/>
<polyline fill="none" stroke="black" points="285,-167.5 450,-167.5 "/>
<polyline fill="none" stroke="black" points="285,-143.5 450,-143.5 "/>
<text text-anchor="start" x="293" y="-128.3" font-family="Times,serif" font-size="14.00">_layout</text>
</g>
<!-- Admin::SubjectsController -->
<g id="node4" class="node"><title>Admin::SubjectsController</title>
<path fill="none" stroke="black" d="M12,-75.5C12,-75.5 152,-75.5 152,-75.5 158,-75.5 164,-81.5 164,-87.5 164,-87.5 164,-157.5 164,-157.5 164,-163.5 158,-169.5 152,-169.5 152,-169.5 12,-169.5 12,-169.5 6,-169.5 0,-163.5 0,-157.5 0,-157.5 0,-87.5 0,-87.5 0,-81.5 6,-75.5 12,-75.5"/>
<text text-anchor="middle" x="82" y="-154.3" font-family="Times,serif" font-size="14.00">Admin::SubjectsController</text>
<polyline fill="none" stroke="black" points="0,-146.5 164,-146.5 "/>
<polyline fill="none" stroke="black" points="0,-122.5 164,-122.5 "/>
<polyline fill="none" stroke="black" points="0,-98.5 164,-98.5 "/>
<text text-anchor="start" x="8" y="-83.3" font-family="Times,serif" font-size="14.00">_layout</text>
</g>
<!-- Admin::TestsController -->
<g id="node5" class="node"><title>Admin::TestsController</title>
<path fill="none" stroke="black" d="M357,-420.5C357,-420.5 479,-420.5 479,-420.5 485,-420.5 491,-426.5 491,-432.5 491,-432.5 491,-502.5 491,-502.5 491,-508.5 485,-514.5 479,-514.5 479,-514.5 357,-514.5 357,-514.5 351,-514.5 345,-508.5 345,-502.5 345,-502.5 345,-432.5 345,-432.5 345,-426.5 351,-420.5 357,-420.5"/>
<text text-anchor="middle" x="418" y="-499.3" font-family="Times,serif" font-size="14.00">Admin::TestsController</text>
<polyline fill="none" stroke="black" points="345,-491.5 491,-491.5 "/>
<polyline fill="none" stroke="black" points="345,-467.5 491,-467.5 "/>
<polyline fill="none" stroke="black" points="345,-443.5 491,-443.5 "/>
<text text-anchor="start" x="353" y="-428.3" font-family="Times,serif" font-size="14.00">_layout</text>
</g>
<!-- Admin::QuestionsController -->
<g id="node6" class="node"><title>Admin::QuestionsController</title>
<path fill="none" stroke="black" d="M27,-390.5C27,-390.5 175,-390.5 175,-390.5 181,-390.5 187,-396.5 187,-402.5 187,-402.5 187,-472.5 187,-472.5 187,-478.5 181,-484.5 175,-484.5 175,-484.5 27,-484.5 27,-484.5 21,-484.5 15,-478.5 15,-472.5 15,-472.5 15,-402.5 15,-402.5 15,-396.5 21,-390.5 27,-390.5"/>
<text text-anchor="middle" x="101" y="-469.3" font-family="Times,serif" font-size="14.00">Admin::QuestionsController</text>
<polyline fill="none" stroke="black" points="15,-461.5 187,-461.5 "/>
<polyline fill="none" stroke="black" points="15,-437.5 187,-437.5 "/>
<polyline fill="none" stroke="black" points="15,-413.5 187,-413.5 "/>
<text text-anchor="start" x="23" y="-398.3" font-family="Times,serif" font-size="14.00">_layout</text>
</g>
<!-- HomeController -->
<g id="node7" class="node"><title>HomeController</title>
<path fill="none" stroke="black" d="M372,-0.5C372,-0.5 454,-0.5 454,-0.5 460,-0.5 466,-6.5 466,-12.5 466,-12.5 466,-81.5 466,-81.5 466,-87.5 460,-93.5 454,-93.5 454,-93.5 372,-93.5 372,-93.5 366,-93.5 360,-87.5 360,-81.5 360,-81.5 360,-12.5 360,-12.5 360,-6.5 366,-0.5 372,-0.5"/>
<text text-anchor="middle" x="413" y="-78.3" font-family="Times,serif" font-size="14.00">HomeController</text>
<polyline fill="none" stroke="black" points="360,-70.5 466,-70.5 "/>
<text text-anchor="start" x="368" y="-55.3" font-family="Times,serif" font-size="14.00">index</text>
<polyline fill="none" stroke="black" points="360,-47.5 466,-47.5 "/>
<polyline fill="none" stroke="black" points="360,-23.5 466,-23.5 "/>
<text text-anchor="start" x="368" y="-8.3" font-family="Times,serif" font-size="14.00">_layout</text>
</g>
<!-- ApplicationController -->
<g id="node8" class="node"><title>ApplicationController</title>
<path fill="none" stroke="black" d="M207,-0.5C207,-0.5 319,-0.5 319,-0.5 325,-0.5 331,-6.5 331,-12.5 331,-12.5 331,-82.5 331,-82.5 331,-88.5 325,-94.5 319,-94.5 319,-94.5 207,-94.5 207,-94.5 201,-94.5 195,-88.5 195,-82.5 195,-82.5 195,-12.5 195,-12.5 195,-6.5 201,-0.5 207,-0.5"/>
<text text-anchor="middle" x="263" y="-79.3" font-family="Times,serif" font-size="14.00">ApplicationController</text>
<polyline fill="none" stroke="black" points="195,-71.5 331,-71.5 "/>
<polyline fill="none" stroke="black" points="195,-47.5 331,-47.5 "/>
<polyline fill="none" stroke="black" points="195,-23.5 331,-23.5 "/>
<text text-anchor="start" x="203" y="-8.3" font-family="Times,serif" font-size="14.00">_layout</text>
</g>
</g>
</svg>
