<?xml version="1.0" encoding="UTF-8" standalone="no"?>
<!DOCTYPE svg PUBLIC "-//W3C//DTD SVG 1.1//EN"
 "http://www.w3.org/Graphics/SVG/1.1/DTD/svg11.dtd">
<!-- Generated by graphviz version 2.36.0 (20140111.2315)
 -->
<!-- Title: models_diagram Pages: 1 -->
<svg width="318pt" height="302pt"
 viewBox="0.00 0.00 318.00 302.00" xmlns="http://www.w3.org/2000/svg" xmlns:xlink="http://www.w3.org/1999/xlink">
<g id="graph0" class="graph" transform="scale(1 1) rotate(0) translate(4 298)">
<title>models_diagram</title>
<polygon fill="none" stroke="none" points="-4,4 -4,-298 314,-298 314,4 -4,4"/>
<!-- _diagram_info -->
<g id="node1" class="node"><title>_diagram_info</title>
<text text-anchor="start" x="7" y="-279.6" font-family="Times,serif" font-size="13.00">Models diagram</text>
<text text-anchor="start" x="7" y="-265.6" font-family="Times,serif" font-size="13.00">Date: Apr 23 2016 &#45; 11:57</text>
<text text-anchor="start" x="7" y="-251.6" font-family="Times,serif" font-size="13.00">Migration version: 20160423080603</text>
<text text-anchor="start" x="7" y="-237.6" font-family="Times,serif" font-size="13.00">Generated by RailRoady 1.4.2</text>
<text text-anchor="start" x="7" y="-223.6" font-family="Times,serif" font-size="13.00">http://railroady.prestonlee.com</text>
</g>
<!-- Question -->
<g id="node2" class="node"><title>Question</title>
<ellipse fill="none" stroke="black" cx="268" cy="-90" rx="42.3701" ry="18"/>
<text text-anchor="middle" x="268" y="-86.3" font-family="Times,serif" font-size="14.00">Question</text>
</g>
<!-- Answer -->
<g id="node5" class="node"><title>Answer</title>
<ellipse fill="none" stroke="black" cx="268" cy="-18" rx="38.0212" ry="18"/>
<text text-anchor="middle" x="268" y="-14.3" font-family="Times,serif" font-size="14.00">Answer</text>
</g>
<!-- Question&#45;&gt;Answer -->
<g id="edge1" class="edge"><title>Question&#45;&gt;Answer</title>
<path fill="none" stroke="#36230c" d="M268,-63.6398C268,-58.0629 268,-52.1319 268,-46.4761"/>
<ellipse fill="none" stroke="#36230c" cx="268" cy="-67.6966" rx="4" ry="4"/>
<polygon fill="#36230c" stroke="#36230c" points="268,-46.1043 272.5,-36.1043 268,-41.1043 268,-36.1043 268,-36.1043 268,-36.1043 268,-41.1043 263.5,-36.1044 268,-46.1043 268,-46.1043"/>
</g>
<!-- Test -->
<g id="node3" class="node"><title>Test</title>
<ellipse fill="none" stroke="black" cx="268" cy="-162" rx="27" ry="18"/>
<text text-anchor="middle" x="268" y="-158.3" font-family="Times,serif" font-size="14.00">Test</text>
</g>
<!-- Test&#45;&gt;Question -->
<g id="edge2" class="edge"><title>Test&#45;&gt;Question</title>
<path fill="none" stroke="#d77a21" d="M268,-135.64C268,-130.063 268,-124.132 268,-118.476"/>
<ellipse fill="none" stroke="#d77a21" cx="268" cy="-139.697" rx="4" ry="4"/>
<polygon fill="#d77a21" stroke="#d77a21" points="268,-118.104 272.5,-108.104 268,-113.104 268,-108.104 268,-108.104 268,-108.104 268,-113.104 263.5,-108.104 268,-118.104 268,-118.104"/>
</g>
<!-- Subject -->
<g id="node4" class="node"><title>Subject</title>
<ellipse fill="none" stroke="black" cx="268" cy="-255" rx="37.0701" ry="18"/>
<text text-anchor="middle" x="268" y="-251.3" font-family="Times,serif" font-size="14.00">Subject</text>
</g>
<!-- Subject&#45;&gt;Test -->
<g id="edge3" class="edge"><title>Subject&#45;&gt;Test</title>
<path fill="none" stroke="#f36dbc" d="M268,-228.729C268,-216.725 268,-202.362 268,-190.129"/>
<ellipse fill="none" stroke="#f36dbc" cx="268" cy="-232.884" rx="4" ry="4"/>
<polygon fill="#f36dbc" stroke="#f36dbc" points="268,-190.04 272.5,-180.04 268,-185.04 268,-180.04 268,-180.04 268,-180.04 268,-185.04 263.5,-180.04 268,-190.04 268,-190.04"/>
</g>
</g>
</svg>
