<?xml version="1.0" encoding="UTF-8" standalone="no"?>
<!DOCTYPE svg PUBLIC "-//W3C//DTD SVG 1.1//EN"
 "http://www.w3.org/Graphics/SVG/1.1/DTD/svg11.dtd">
<!-- Generated by graphviz version 2.36.0 (20140111.2315)
 -->
<!-- Title: models_diagram Pages: 1 -->
<svg width="483pt" height="532pt"
 viewBox="0.00 0.00 483.00 532.00" xmlns="http://www.w3.org/2000/svg" xmlns:xlink="http://www.w3.org/1999/xlink">
<g id="graph0" class="graph" transform="scale(1 1) rotate(0) translate(4 528)">
<title>models_diagram</title>
<polygon fill="none" stroke="none" points="-4,4 -4,-528 479,-528 479,4 -4,4"/>
<!-- _diagram_info -->
<g id="node1" class="node"><title>_diagram_info</title>
<text text-anchor="start" x="7" y="-502.6" font-family="Times,serif" font-size="13.00">Models diagram</text>
<text text-anchor="start" x="7" y="-488.6" font-family="Times,serif" font-size="13.00">Date: Apr 23 2016 &#45; 11:57</text>
<text text-anchor="start" x="7" y="-474.6" font-family="Times,serif" font-size="13.00">Migration version: 20160423080603</text>
<text text-anchor="start" x="7" y="-460.6" font-family="Times,serif" font-size="13.00">Generated by RailRoady 1.4.2</text>
<text text-anchor="start" x="7" y="-446.6" font-family="Times,serif" font-size="13.00">http://railroady.prestonlee.com</text>
</g>
<!-- Question -->
<g id="node2" class="node"><title>Question</title>
<path fill="none" stroke="black" d="M243,-145C243,-145 463,-145 463,-145 469,-145 475,-151 475,-157 475,-157 475,-239 475,-239 475,-245 469,-251 463,-251 463,-251 243,-251 243,-251 237,-251 231,-245 231,-239 231,-239 231,-157 231,-157 231,-151 237,-145 243,-145"/>
<text text-anchor="middle" x="353" y="-235.8" font-family="Times,serif" font-size="14.00">Question</text>
<polyline fill="none" stroke="black" points="231,-228 475,-228 "/>
<text text-anchor="start" x="239" y="-212.8" font-family="Times,serif" font-size="14.00">id :integer</text>
<text text-anchor="start" x="239" y="-197.8" font-family="Times,serif" font-size="14.00">question :character varying</text>
<text text-anchor="start" x="239" y="-182.8" font-family="Times,serif" font-size="14.00">test_id :integer</text>
<text text-anchor="start" x="239" y="-167.8" font-family="Times,serif" font-size="14.00">created_at :timestamp without time zone</text>
<text text-anchor="start" x="239" y="-152.8" font-family="Times,serif" font-size="14.00">updated_at :timestamp without time zone</text>
</g>
<!-- Answer -->
<g id="node5" class="node"><title>Answer</title>
<path fill="none" stroke="black" d="M243,-1C243,-1 463,-1 463,-1 469,-1 475,-7 475,-13 475,-13 475,-95 475,-95 475,-101 469,-107 463,-107 463,-107 243,-107 243,-107 237,-107 231,-101 231,-95 231,-95 231,-13 231,-13 231,-7 237,-1 243,-1"/>
<text text-anchor="middle" x="353" y="-91.8" font-family="Times,serif" font-size="14.00">Answer</text>
<polyline fill="none" stroke="black" points="231,-84 475,-84 "/>
<text text-anchor="start" x="239" y="-68.8" font-family="Times,serif" font-size="14.00">id :integer</text>
<text text-anchor="start" x="239" y="-53.8" font-family="Times,serif" font-size="14.00">answer :character varying</text>
<text text-anchor="start" x="239" y="-38.8" font-family="Times,serif" font-size="14.00">question_id :integer</text>
<text text-anchor="start" x="239" y="-23.8" font-family="Times,serif" font-size="14.00">created_at :timestamp without time zone</text>
<text text-anchor="start" x="239" y="-8.8" font-family="Times,serif" font-size="14.00">updated_at :timestamp without time zone</text>
</g>
<!-- Question&#45;&gt;Answer -->
<g id="edge1" class="edge"><title>Question&#45;&gt;Answer</title>
<path fill="none" stroke="#fc8769" d="M353,-136.726C353,-130.251 353,-123.654 353,-117.157"/>
<ellipse fill="none" stroke="#fc8769" cx="353" cy="-140.931" rx="4" ry="4"/>
<polygon fill="#fc8769" stroke="#fc8769" points="353,-117.063 357.5,-107.063 353,-112.063 353,-107.063 353,-107.063 353,-107.063 353,-112.063 348.5,-107.063 353,-117.063 353,-117.063"/>
</g>
<!-- Test -->
<g id="node3" class="node"><title>Test</title>
<path fill="none" stroke="black" d="M243,-289C243,-289 463,-289 463,-289 469,-289 475,-295 475,-301 475,-301 475,-383 475,-383 475,-389 469,-395 463,-395 463,-395 243,-395 243,-395 237,-395 231,-389 231,-383 231,-383 231,-301 231,-301 231,-295 237,-289 243,-289"/>
<text text-anchor="middle" x="353" y="-379.8" font-family="Times,serif" font-size="14.00">Test</text>
<polyline fill="none" stroke="black" points="231,-372 475,-372 "/>
<text text-anchor="start" x="239" y="-356.8" font-family="Times,serif" font-size="14.00">id :integer</text>
<text text-anchor="start" x="239" y="-341.8" font-family="Times,serif" font-size="14.00">name :character varying</text>
<text text-anchor="start" x="239" y="-326.8" font-family="Times,serif" font-size="14.00">subject_id :integer</text>
<text text-anchor="start" x="239" y="-311.8" font-family="Times,serif" font-size="14.00">created_at :timestamp without time zone</text>
<text text-anchor="start" x="239" y="-296.8" font-family="Times,serif" font-size="14.00">updated_at :timestamp without time zone</text>
</g>
<!-- Test&#45;&gt;Question -->
<g id="edge2" class="edge"><title>Test&#45;&gt;Question</title>
<path fill="none" stroke="#4e849f" d="M353,-280.726C353,-274.251 353,-267.654 353,-261.157"/>
<ellipse fill="none" stroke="#4e849f" cx="353" cy="-284.931" rx="4" ry="4"/>
<polygon fill="#4e849f" stroke="#4e849f" points="353,-261.063 357.5,-251.063 353,-256.063 353,-251.063 353,-251.063 353,-251.063 353,-256.063 348.5,-251.063 353,-261.063 353,-261.063"/>
</g>
<!-- Subject -->
<g id="node4" class="node"><title>Subject</title>
<path fill="none" stroke="black" d="M243,-432.5C243,-432.5 463,-432.5 463,-432.5 469,-432.5 475,-438.5 475,-444.5 475,-444.5 475,-511.5 475,-511.5 475,-517.5 469,-523.5 463,-523.5 463,-523.5 243,-523.5 243,-523.5 237,-523.5 231,-517.5 231,-511.5 231,-511.5 231,-444.5 231,-444.5 231,-438.5 237,-432.5 243,-432.5"/>
<text text-anchor="middle" x="353" y="-508.3" font-family="Times,serif" font-size="14.00">Subject</text>
<polyline fill="none" stroke="black" points="231,-500.5 475,-500.5 "/>
<text text-anchor="start" x="239" y="-485.3" font-family="Times,serif" font-size="14.00">id :integer</text>
<text text-anchor="start" x="239" y="-470.3" font-family="Times,serif" font-size="14.00">name :character varying</text>
<text text-anchor="start" x="239" y="-455.3" font-family="Times,serif" font-size="14.00">created_at :timestamp without time zone</text>
<text text-anchor="start" x="239" y="-440.3" font-family="Times,serif" font-size="14.00">updated_at :timestamp without time zone</text>
</g>
<!-- Subject&#45;&gt;Test -->
<g id="edge3" class="edge"><title>Subject&#45;&gt;Test</title>
<path fill="none" stroke="#1ffc29" d="M353,-424.164C353,-418.086 353,-411.845 353,-405.653"/>
<ellipse fill="none" stroke="#1ffc29" cx="353" cy="-428.38" rx="4" ry="4"/>
<polygon fill="#1ffc29" stroke="#1ffc29" points="353,-405.318 357.5,-395.318 353,-400.318 353,-395.318 353,-395.318 353,-395.318 353,-400.318 348.5,-395.318 353,-405.318 353,-405.318"/>
</g>
</g>
</svg>
